<?xml version="1.0" ?>
<!DOCTYPE svg  PUBLIC '-//W3C//DTD SVG 1.1//EN'  'http://www.w3.org/Graphics/SVG/1.1/DTD/svg11.dtd'>
<!-- Uploaded to: SVG Repo, www.svgrepo.com, Generator: SVG Repo Mixer Tools -->
<svg fill="#000000" width="800px" height="800px" viewBox="0 0 64 64" style="fill-rule:evenodd;clip-rule:evenodd;stroke-linecap:round;stroke-linejoin:round;stroke-miterlimit:1.5;" version="1.1" xml:space="preserve" xmlns="http://www.w3.org/2000/svg" xmlns:serif="http://www.serif.com/" xmlns:xlink="http://www.w3.org/1999/xlink">
<g transform="matrix(1,0,0,1,-252,-168)">
<g id="Yakitori" transform="matrix(1,0,0,1,-104.333,168)">
<rect height="64" style="fill:none;" width="64" x="356.333" y="0"/>
<g transform="matrix(1,0,0,1,111.083,-168)">
<path d="M262,172L262,228L267,228L267,220L262,216" style="fill:none;stroke:rgb(34,32,77);stroke-width:2px;"/>
</g>
<g transform="matrix(0.625,0,0,1.11111,209.583,-195.889)">
<path d="M268,207.8C268,207.323 267.663,206.865 267.063,206.527C266.463,206.19 265.649,206 264.8,206C263.067,206 260.933,206 259.2,206C258.351,206 257.537,206.19 256.937,206.527C256.337,206.865 256,207.323 256,207.8C256,209.369 256,211.631 256,213.2C256,213.677 256.337,214.135 256.937,214.473C257.537,214.81 258.351,215 259.2,215C260.933,215 263.067,215 264.8,215C265.649,215 266.463,214.81 267.063,214.473C267.663,214.135 268,213.677 268,213.2C268,211.631 268,209.369 268,207.8Z" style="fill:rgb(216,98,9);stroke:rgb(34,32,77);stroke-width:2.22px;"/>
</g>
<g transform="matrix(0.583333,0,0,1.11111,220.25,-211.889)">
<path d="M268,209.15C268,207.41 265.314,206 262,206C262,206 262,206 262,206C258.686,206 256,207.41 256,209.15C256,210.025 256,210.975 256,211.85C256,213.59 258.686,215 262,215C262,215 262,215 262,215C265.314,215 268,213.59 268,211.85C268,210.975 268,210.025 268,209.15Z" style="fill:rgb(216,98,9);stroke:rgb(34,32,77);stroke-width:2.25px;"/>
</g>
<g transform="matrix(0.625,0,0,0.666667,209.583,-110.333)">
<path d="M268,209C268,207.343 266.567,206 264.8,206C263.067,206 260.933,206 259.2,206C257.433,206 256,207.343 256,209C256,209.965 256,211.035 256,212C256,213.657 257.433,215 259.2,215C260.933,215 263.067,215 264.8,215C266.567,215 268,213.657 268,212C268,211.035 268,209.965 268,209Z" style="fill:rgb(213,181,5);stroke:rgb(34,32,77);stroke-width:3.1px;"/>
</g>
<g transform="matrix(0.583333,0,0,0.888889,220.25,-174.111)">
<path d="M268,208.25C268,207.007 266.465,206 264.571,206C262.959,206 261.041,206 259.429,206C257.535,206 256,207.007 256,208.25C256,209.624 256,211.376 256,212.75C256,213.993 257.535,215 259.429,215C261.041,215 262.959,215 264.571,215C266.465,215 268,213.993 268,212.75C268,211.376 268,209.624 268,208.25Z" style="fill:rgb(216,98,9);stroke:rgb(34,32,77);stroke-width:2.66px;"/>
</g>
<g transform="matrix(1,0,0,1,111.083,-177)">
<path d="M262,189L262,190" style="fill:none;stroke:rgb(174,75,0);stroke-width:2px;"/>
</g>
<g transform="matrix(1,0,0,1,111.083,-152)">
<path d="M262,189L262,190" style="fill:none;stroke:rgb(174,75,0);stroke-width:2px;"/>
</g>
<g transform="matrix(1,0,0,1,111.083,-168)">
<path d="M262,216L262,228L267,228L267,220L262,216Z" style="fill:rgb(216,98,9);stroke:rgb(34,32,77);stroke-width:2px;"/>
</g>
<g transform="matrix(1,0,0,1,111.083,-167)">
<path d="M262,189L262,190" style="fill:none;stroke:rgb(174,75,0);stroke-width:2px;"/>
</g>
<g transform="matrix(1,0,0,1,125.583,-168)">
<path d="M262,172L262,228L267,228L267,220L262,216" style="fill:none;stroke:rgb(34,32,77);stroke-width:2px;"/>
</g>
<g transform="matrix(0.625,0,0,1.11111,224.083,-195.889)">
<path d="M268,207.8C268,207.323 267.663,206.865 267.063,206.527C266.463,206.19 265.649,206 264.8,206C263.067,206 260.933,206 259.2,206C258.351,206 257.537,206.19 256.937,206.527C256.337,206.865 256,207.323 256,207.8C256,209.369 256,211.631 256,213.2C256,213.677 256.337,214.135 256.937,214.473C257.537,214.81 258.351,215 259.2,215C260.933,215 263.067,215 264.8,215C265.649,215 266.463,214.81 267.063,214.473C267.663,214.135 268,213.677 268,213.2C268,211.631 268,209.369 268,207.8Z" style="fill:rgb(216,98,9);stroke:rgb(34,32,77);stroke-width:2.22px;"/>
</g>
<g transform="matrix(0.583333,0,0,1.11111,234.75,-211.889)">
<path d="M268,209.15C268,207.41 265.314,206 262,206C262,206 262,206 262,206C258.686,206 256,207.41 256,209.15C256,210.025 256,210.975 256,211.85C256,213.59 258.686,215 262,215C262,215 262,215 262,215C265.314,215 268,213.59 268,211.85C268,210.975 268,210.025 268,209.15Z" style="fill:rgb(216,98,9);stroke:rgb(34,32,77);stroke-width:2.25px;"/>
</g>
<g transform="matrix(0.625,0,0,0.666667,224.083,-110.333)">
<path d="M268,209C268,207.343 266.567,206 264.8,206C263.067,206 260.933,206 259.2,206C257.433,206 256,207.343 256,209C256,209.965 256,211.035 256,212C256,213.657 257.433,215 259.2,215C260.933,215 263.067,215 264.8,215C266.567,215 268,213.657 268,212C268,211.035 268,209.965 268,209Z" style="fill:rgb(213,181,5);stroke:rgb(34,32,77);stroke-width:3.1px;"/>
</g>
<g transform="matrix(0.583333,0,0,0.888889,234.75,-174.111)">
<path d="M268,208.25C268,207.007 266.465,206 264.571,206C262.959,206 261.041,206 259.429,206C257.535,206 256,207.007 256,208.25C256,209.624 256,211.376 256,212.75C256,213.993 257.535,215 259.429,215C261.041,215 262.959,215 264.571,215C266.465,215 268,213.993 268,212.75C268,211.376 268,209.624 268,208.25Z" style="fill:rgb(216,98,9);stroke:rgb(34,32,77);stroke-width:2.66px;"/>
</g>
<g transform="matrix(1,0,0,1,125.583,-177)">
<path d="M262,189L262,190" style="fill:none;stroke:rgb(174,75,0);stroke-width:2px;"/>
</g>
<g transform="matrix(1,0,0,1,125.583,-152)">
<path d="M262,189L262,190" style="fill:none;stroke:rgb(174,75,0);stroke-width:2px;"/>
</g>
<g transform="matrix(1,0,0,1,125.583,-168)">
<path d="M262,216L262,228L267,228L267,220L262,216Z" style="fill:rgb(216,98,9);stroke:rgb(34,32,77);stroke-width:2px;"/>
</g>
<g transform="matrix(1,0,0,1,125.583,-167)">
<path d="M262,189L262,190" style="fill:none;stroke:rgb(174,75,0);stroke-width:2px;"/>
</g>
<g transform="matrix(1,0,0,1,140.083,-168)">
<path d="M262,172L262,228L267,228L267,220L262,216" style="fill:none;stroke:rgb(34,32,77);stroke-width:2px;"/>
</g>
<g transform="matrix(0.625,0,0,1.11111,238.583,-195.889)">
<path d="M268,207.8C268,207.323 267.663,206.865 267.063,206.527C266.463,206.19 265.649,206 264.8,206C263.067,206 260.933,206 259.2,206C258.351,206 257.537,206.19 256.937,206.527C256.337,206.865 256,207.323 256,207.8C256,209.369 256,211.631 256,213.2C256,213.677 256.337,214.135 256.937,214.473C257.537,214.81 258.351,215 259.2,215C260.933,215 263.067,215 264.8,215C265.649,215 266.463,214.81 267.063,214.473C267.663,214.135 268,213.677 268,213.2C268,211.631 268,209.369 268,207.8Z" style="fill:rgb(216,98,9);stroke:rgb(34,32,77);stroke-width:2.22px;"/>
</g>
<g transform="matrix(0.583333,0,0,1.11111,249.25,-211.889)">
<path d="M268,209.15C268,207.41 265.314,206 262,206C262,206 262,206 262,206C258.686,206 256,207.41 256,209.15C256,210.025 256,210.975 256,211.85C256,213.59 258.686,215 262,215C262,215 262,215 262,215C265.314,215 268,213.59 268,211.85C268,210.975 268,210.025 268,209.15Z" style="fill:rgb(216,98,9);stroke:rgb(34,32,77);stroke-width:2.25px;"/>
</g>
<g transform="matrix(0.625,0,0,0.666667,238.583,-110.333)">
<path d="M268,209C268,207.343 266.567,206 264.8,206C263.067,206 260.933,206 259.2,206C257.433,206 256,207.343 256,209C256,209.965 256,211.035 256,212C256,213.657 257.433,215 259.2,215C260.933,215 263.067,215 264.8,215C266.567,215 268,213.657 268,212C268,211.035 268,209.965 268,209Z" style="fill:rgb(213,181,5);stroke:rgb(34,32,77);stroke-width:3.1px;"/>
</g>
<g transform="matrix(0.583333,0,0,0.888889,249.25,-174.111)">
<path d="M268,208.25C268,207.007 266.465,206 264.571,206C262.959,206 261.041,206 259.429,206C257.535,206 256,207.007 256,208.25C256,209.624 256,211.376 256,212.75C256,213.993 257.535,215 259.429,215C261.041,215 262.959,215 264.571,215C266.465,215 268,213.993 268,212.75C268,211.376 268,209.624 268,208.25Z" style="fill:rgb(216,98,9);stroke:rgb(34,32,77);stroke-width:2.66px;"/>
</g>
<g transform="matrix(1,0,0,1,140.083,-177)">
<path d="M262,189L262,190" style="fill:none;stroke:rgb(174,75,0);stroke-width:2px;"/>
</g>
<g transform="matrix(1,0,0,1,140.083,-152)">
<path d="M262,189L262,190" style="fill:none;stroke:rgb(174,75,0);stroke-width:2px;"/>
</g>
<g transform="matrix(1,0,0,1,140.083,-168)">
<path d="M262,216L262,228L267,228L267,220L262,216Z" style="fill:rgb(216,98,9);stroke:rgb(34,32,77);stroke-width:2px;"/>
</g>
<g transform="matrix(1,0,0,1,140.083,-167)">
<path d="M262,189L262,190" style="fill:none;stroke:rgb(174,75,0);stroke-width:2px;"/>
</g>
</g>
</g>
</svg>